<svg width="1333" height="450" viewBox="0 0 1333 450" xmlns="http://www.w3.org/2000/svg">
    <g fill="none" fill-rule="evenodd">
        <path fill="#111" d="m241.603 0 12.582 28.31H229.02zM1165.603 257l12.582 28.31h-25.165zM344.603 370l12.582 28.31H332.02zM136.694 119.242l3.694 8.312H133zM750.694 404.242l3.694 8.312H747zM35.694 47.242l3.694 8.312H32zM110.694 348.242l3.694 8.312H107zM1256.694 28.242l3.694 8.312H1253zM1305.694 381.242l3.694 8.312H1302z"/>
        <path fill="#FFF" d="m84.073 163.863 12.583 28.312H71.49zM227.073 273.863l12.583 28.312H214.49zM1027.073 370.863l12.583 28.312h-25.166zM136.694 173.863l3.694 8.312H133zM1086.694 46.863l3.694 8.312H1083zM1328.694 211.863l3.694 8.312H1325zM1289.694 161.863l3.694 8.312H1286zM172.694 440.863l3.694 8.312H169zM3.694 389.863l3.694 8.312H0z"/>
    </g>
</svg>
