<?xml version="1.0" encoding="utf-8"?>
<!-- Generator: Adobe Illustrator 26.2.1, SVG Export Plug-In . SVG Version: 6.00 Build 0)  -->
<svg version="1.1" id="Layer_1" xmlns="http://www.w3.org/2000/svg" xmlns:xlink="http://www.w3.org/1999/xlink" x="0px" y="0px"
	 viewBox="0 0 480 391" style="enable-background:new 0 0 480 391;" xml:space="preserve">
<style type="text/css">
	.st0{fill-rule:evenodd;clip-rule:evenodd;fill:#111111;}
	.st1{fill-rule:evenodd;clip-rule:evenodd;fill:#FFFFFF;}
</style>
<path class="st0" d="M476.3,163.9l3.7,8.3h-7.4L476.3,163.9z"/>
<polygon class="st0" points="423.8,163.9 427.5,172.2 420.1,172.2 "/>
<polygon class="st0" points="371.3,163.9 375,172.2 367.6,172.2 "/>
<polygon class="st0" points="318.8,163.9 322.4,172.2 315.1,172.2 "/>
<polygon class="st0" points="266.2,163.9 269.9,172.2 262.6,172.2 "/>
<polygon class="st0" points="213.7,163.9 217.4,172.2 210,172.2 "/>
<polygon class="st0" points="161.2,163.9 164.9,172.2 157.5,172.2 "/>
<polygon class="st0" points="108.7,163.9 112.4,172.2 105,172.2 "/>
<polygon class="st0" points="56.2,163.9 59.9,172.2 52.5,172.2 "/>
<polygon class="st0" points="3.7,163.9 7.4,172.2 0,172.2 "/>
<polygon class="st0" points="3.7,273.1 7.4,281.4 0,281.4 "/>
<polygon class="st0" points="56.2,273.1 59.9,281.4 52.5,281.4 "/>
<polygon class="st0" points="108.7,273.1 112.4,281.4 105,281.4 "/>
<polygon class="st0" points="161.2,273.1 164.9,281.4 157.5,281.4 "/>
<polygon class="st0" points="213.7,273.1 217.4,281.4 210,281.4 "/>
<polygon class="st0" points="266.2,273.1 269.9,281.4 262.6,281.4 "/>
<polygon class="st0" points="318.8,273.1 322.4,281.4 315.1,281.4 "/>
<polygon class="st0" points="371.3,273.1 375,281.4 367.6,281.4 "/>
<polygon class="st0" points="423.8,273.1 427.5,281.4 420.1,281.4 "/>
<path class="st0" d="M476.3,273.1l3.7,8.3h-7.4L476.3,273.1z"/>
<polygon class="st0" points="476.3,382.3 480,390.7 472.6,390.7 "/>
<polygon class="st0" points="423.8,382.3 427.5,390.7 420.1,390.7 "/>
<polygon class="st0" points="371.3,382.3 375,390.7 367.6,390.7 "/>
<polygon class="st0" points="318.8,382.3 322.4,390.7 315.1,390.7 "/>
<polygon class="st0" points="266.2,382.3 269.9,390.7 262.6,390.7 "/>
<polygon class="st0" points="213.7,382.3 217.4,390.7 210,390.7 "/>
<polygon class="st0" points="161.2,382.3 164.9,390.7 157.5,390.7 "/>
<polygon class="st0" points="108.7,382.3 112.4,390.7 105,390.7 "/>
<polygon class="st0" points="56.2,382.3 59.9,390.7 52.5,390.7 "/>
<path class="st0" d="M3.7,382.3l3.7,8.3H0L3.7,382.3z"/>
<polygon class="st1" points="3.7,327.7 7.4,336 0,336 "/>
<polygon class="st1" points="56.2,327.7 59.9,336 52.5,336 "/>
<polygon class="st1" points="108.7,327.7 112.4,336 105,336 "/>
<polygon class="st1" points="161.2,327.7 164.9,336 157.5,336 "/>
<polygon class="st1" points="213.7,327.7 217.4,336 210,336 "/>
<polygon class="st1" points="266.2,327.7 269.9,336 262.6,336 "/>
<polygon class="st1" points="318.8,327.7 322.4,336 315.1,336 "/>
<polygon class="st1" points="371.3,327.7 375,336 367.6,336 "/>
<polygon class="st1" points="423.8,327.7 427.5,336 420.1,336 "/>
<path class="st1" d="M476.3,327.7l3.7,8.3h-7.4L476.3,327.7z"/>
<polygon class="st1" points="476.3,218.5 480,226.8 472.6,226.8 "/>
<polygon class="st1" points="423.8,218.5 427.5,226.8 420.1,226.8 "/>
<polygon class="st1" points="371.3,218.5 375,226.8 367.6,226.8 "/>
<polygon class="st1" points="318.8,218.5 322.4,226.8 315.1,226.8 "/>
<polygon class="st1" points="266.2,218.5 269.9,226.8 262.6,226.8 "/>
<polygon class="st1" points="213.7,218.5 217.4,226.8 210,226.8 "/>
<polygon class="st1" points="161.2,218.5 164.9,226.8 157.5,226.8 "/>
<polygon class="st1" points="108.7,218.5 112.4,226.8 105,226.8 "/>
<polygon class="st1" points="56.2,218.5 59.9,226.8 52.5,226.8 "/>
<path class="st1" d="M3.7,218.5l3.7,8.3H0L3.7,218.5z"/>
<polygon class="st1" points="3.7,109.2 7.4,117.6 0,117.6 "/>
<polygon class="st1" points="56.2,109.2 59.9,117.6 52.5,117.6 "/>
<polygon class="st1" points="108.7,109.2 112.4,117.6 105,117.6 "/>
<polygon class="st1" points="161.2,109.2 164.9,117.6 157.5,117.6 "/>
<polygon class="st1" points="213.7,109.2 217.4,117.6 210,117.6 "/>
<polygon class="st1" points="266.2,109.2 269.9,117.6 262.6,117.6 "/>
<polygon class="st1" points="318.8,109.2 322.4,117.6 315.1,117.6 "/>
<polygon class="st1" points="371.3,109.2 375,117.6 367.6,117.6 "/>
<polygon class="st1" points="423.8,109.2 427.5,117.6 420.1,117.6 "/>
<path class="st1" d="M476.3,109.2l3.7,8.3h-7.4L476.3,109.2z"/>
<path class="st0" d="M476.3,54.6l3.7,8.3h-7.4L476.3,54.6z"/>
<path class="st0" d="M423.8,54.6l3.7,8.3h-7.4L423.8,54.6z"/>
<path class="st0" d="M371.3,54.6l3.7,8.3h-7.4L371.3,54.6z"/>
<path class="st0" d="M318.8,54.6l3.7,8.3h-7.4L318.8,54.6z"/>
<path class="st0" d="M266.2,54.6l3.7,8.3h-7.4L266.2,54.6z"/>
<path class="st0" d="M213.7,54.6l3.7,8.3H210L213.7,54.6z"/>
<path class="st0" d="M161.2,54.6l3.7,8.3h-7.4L161.2,54.6z"/>
<path class="st0" d="M108.7,54.6l3.7,8.3H105L108.7,54.6z"/>
<path class="st0" d="M56.2,54.6l3.7,8.3h-7.4L56.2,54.6z"/>
<path class="st0" d="M3.7,54.6l3.7,8.3H0L3.7,54.6z"/>
<path class="st1" d="M3.7,0l3.7,8.3H0L3.7,0z"/>
<path class="st1" d="M56.2,0l3.7,8.3h-7.4L56.2,0z"/>
<path class="st1" d="M108.7,0l3.7,8.3H105L108.7,0z"/>
<path class="st1" d="M161.2,0l3.7,8.3h-7.4L161.2,0z"/>
<path class="st1" d="M213.7,0l3.7,8.3H210L213.7,0z"/>
<path class="st1" d="M266.2,0l3.7,8.3h-7.4L266.2,0z"/>
<path class="st1" d="M318.8,0l3.7,8.3h-7.4L318.8,0z"/>
<path class="st1" d="M371.3,0l3.7,8.3h-7.4L371.3,0z"/>
<path class="st1" d="M423.8,0l3.7,8.3h-7.4L423.8,0z"/>
<path class="st1" d="M476.3,0l3.7,8.3h-7.4L476.3,0z"/>
</svg>
