<svg width="480" height="391" viewBox="0 0 480 391" xmlns="http://www.w3.org/2000/svg">
    <g fill="none" fill-rule="evenodd">
        <path fill="#FFF" d="m3.694 0 3.694 8.312H0z"/>
        <path fill="#111" d="m3.694 54.621 3.694 8.312H0z"/>
        <path fill="#FFF" d="M56.204 0 59.9 8.312H52.51z"/>
        <path fill="#111" d="m56.204 54.621 3.695 8.312H52.51z"/>
        <path fill="#FFF" d="m108.714 0 3.695 8.312h-7.389z"/>
        <path fill="#111" d="m108.714 54.621 3.695 8.312h-7.389z"/>
        <path fill="#FFF" d="m161.225 0 3.694 8.312h-7.389z"/>
        <path fill="#111" d="m161.225 54.621 3.694 8.312h-7.389z"/>
        <path fill="#FFF" d="m213.735 0 3.694 8.312h-7.388z"/>
        <path fill="#111" d="m213.735 54.621 3.694 8.312h-7.388z"/>
        <path fill="#FFF" d="m266.245 0 3.694 8.312h-7.388z"/>
        <path fill="#111" d="m266.245 54.621 3.694 8.312h-7.388z"/>
        <path fill="#FFF" d="m318.755 0 3.694 8.312h-7.388z"/>
        <path fill="#111" d="m318.755 54.621 3.694 8.312h-7.388z"/>
        <path fill="#FFF" d="m371.265 0 3.694 8.312h-7.388z"/>
        <path fill="#111" d="m371.153 44.621 12.582 28.31h-25.164z"/>
        <path fill="#FFF" d="m423.775 0 3.695 8.312h-7.389z"/>
        <path fill="#111" d="m423.775 54.621 3.695 8.312h-7.389z"/>
        <path fill="#FFF" d="m476.286 0 3.694 8.312h-7.389z"/>
        <path fill="#111" d="m476.286 54.621 3.694 8.312h-7.389z"/>
        <path fill="#FFF" d="m3.694 109.242 3.694 8.312H0zM56.204 109.242l3.695 8.312H52.51zM108.714 109.242l3.695 8.312h-7.389zM161.225 109.242l3.694 8.312h-7.389zM213.735 109.242l3.694 8.312h-7.388zM266.245 109.242l3.694 8.312h-7.388zM318.755 109.242l3.694 8.312h-7.388zM371.265 109.242l3.694 8.312h-7.388zM423.775 109.242l3.695 8.312h-7.389zM476.286 109.242l3.694 8.312h-7.389z"/>
        <path fill="#111" d="m3.694 163.863 3.694 8.312H0zM56.204 163.863l3.695 8.312H52.51zM108.714 163.863l3.695 8.312h-7.389zM161.225 163.863l3.694 8.312h-7.389zM213.735 163.863l3.694 8.312h-7.388zM266.245 163.863l3.694 8.312h-7.388zM318.755 163.863l3.694 8.312h-7.388zM371.265 163.863l3.694 8.312h-7.388zM423.775 163.863l3.695 8.312h-7.389zM476.286 163.863l3.694 8.312h-7.389z"/>
        <path fill="#FFF" d="m3.694 218.484 3.694 8.312H0zM56.204 218.484l3.695 8.312H52.51zM108.714 218.484l3.695 8.312h-7.389zM161.225 218.484l3.694 8.312h-7.389zM213.624 208.484l12.583 28.312H201.04zM266.245 218.484l3.694 8.312h-7.388zM318.755 218.484l3.694 8.312h-7.388zM371.265 218.484l3.694 8.312h-7.388zM423.775 218.484l3.695 8.312h-7.389zM476.286 218.484l3.694 8.312h-7.389z"/>
        <path fill="#111" d="m3.694 273.106 3.694 8.311H0zM56.204 273.106l3.695 8.311H52.51zM108.714 273.106l3.695 8.311h-7.389zM161.225 273.106l3.694 8.311h-7.389zM213.735 273.106l3.694 8.311h-7.388zM266.245 273.106l3.694 8.311h-7.388zM318.755 273.106l3.694 8.311h-7.388zM371.265 273.106l3.694 8.311h-7.388zM423.775 273.106l3.695 8.311h-7.389zM476.286 273.106l3.694 8.311h-7.389z"/>
        <path fill="#FFF" d="m3.694 327.727 3.694 8.312H0zM56.204 327.727l3.695 8.312H52.51zM108.714 327.727l3.695 8.312h-7.389zM161.225 327.727l3.694 8.312h-7.389zM213.735 327.727l3.694 8.312h-7.388zM266.245 327.727l3.694 8.312h-7.388zM318.755 327.727l3.694 8.312h-7.388zM371.265 327.727l3.694 8.312h-7.388zM423.775 327.727l3.695 8.312h-7.389zM476.286 327.727l3.694 8.312h-7.389z"/>
        <path fill="#111" d="m3.694 382.348 3.694 8.312H0zM56.204 382.348l3.695 8.312H52.51zM108.714 382.348l3.695 8.312h-7.389zM161.225 382.348l3.694 8.312h-7.389zM213.735 382.348l3.694 8.312h-7.388zM266.245 382.348l3.694 8.312h-7.388zM318.755 382.348l3.694 8.312h-7.388zM371.265 382.348l3.694 8.312h-7.388zM423.775 382.348l3.695 8.312h-7.389zM476.286 382.348l3.694 8.312h-7.389z"/>
    </g>
</svg>
